<?xml version="1.0" encoding="UTF-8"?>
<svg width="556px" height="556px" viewBox="0 0 556 556" version="1.1" xmlns="http://www.w3.org/2000/svg" xmlns:xlink="http://www.w3.org/1999/xlink">
    <!-- Generator: Sketch 61.2 (89653) - https://sketch.com -->
    <title>Shape Copy</title>
    <desc>Created with Sketch.</desc>
    <g id="Page-1" stroke="none" stroke-width="1" fill="none" fill-rule="evenodd">
        <g id="spacedrop" fill="#FFFFFF" fill-rule="nonzero">
            <path d="M126.691506,191.166212 C165.411691,152.459779 218.910677,128.520079 277.998995,128.520079 C337.089398,128.520079 390.586297,152.459776 429.307095,191.166822 C468.030751,229.866293 491.984254,283.335011 491.984254,342.393813 C491.984254,360.229888 489.799052,377.554796 485.682096,394.116936 C504.986824,359.750601 516,320.091768 516,277.858613 C516,212.177557 489.355984,152.709041 446.294612,109.664472 C403.224829,66.6270374 343.721782,40 277.998995,40 C212.278149,40 152.773158,66.6270421 109.702358,109.665493 C66.6420022,152.709045 40,212.177579 40,277.858613 C40,320.082501 51.0083604,359.733186 70.3125159,394.104345 C66.2005014,377.554247 64.015746,360.229609 64.015746,342.393813 C64.015746,283.335077 87.9692092,229.86641 126.691506,191.166212 Z M201.787843,330.853334 C182.146971,350.540864 170,377.736884 170,407.776757 C170,433.598596 178.971626,457.315912 193.96103,475.971596 C193.911731,474.757118 193.885517,473.532835 193.885517,472.302511 C193.885517,448.894114 203.35874,427.702367 218.662687,412.353197 C233.975567,397.003939 255.136626,387.506023 278.5,387.506023 C301.865829,387.506023 323.026971,397.004266 338.336089,412.35197 C353.641277,427.702384 363.114483,448.894126 363.114483,472.302511 C363.114483,473.533833 363.088253,474.759104 363.036325,475.97777 C378.027482,457.322125 387,433.601951 387,407.776757 C387,377.737041 374.855105,350.541075 355.213499,330.854679 C335.586763,311.171969 308.45837,299 278.5,299 C248.543359,299 221.414919,311.172153 201.787843,330.853334 Z M172.579028,301.023618 C199.560431,274.039798 236.833894,257.350038 278,257.350038 C319.166112,257.350038 356.439577,274.039806 383.419862,301.022507 C410.394173,328.007709 427.086881,365.280454 427.086881,406.452619 C427.086881,415.881556 426.210657,425.105109 424.536436,434.047313 C441.301017,407.393236 451,375.844596 451,342.030428 C451,294.242802 431.634367,250.986444 400.329788,219.678519 C369.026884,188.362689 325.770969,169 278,169 C230.228939,169 186.974908,188.362813 155.670904,219.677827 C124.367681,250.986312 105,294.242704 105,342.030428 C105,375.842569 114.698807,407.389433 131.463043,434.042233 C129.791272,425.107131 128.915123,415.882592 128.915123,406.452619 C128.915123,365.28054 145.607786,328.007867 172.579028,301.023618 Z M275.257588,555.985587 C199.578052,555.248629 131.135658,524.282499 81.4221026,474.577201 C31.1192137,424.268119 0,354.767195 0,278 C0,201.232872 31.1191236,131.734036 81.422915,81.4219865 C131.734032,31.1191273 201.232869,0 278,0 C354.767193,0 424.268116,31.1192104 474.578014,81.422915 C524.880873,131.734032 556,201.232869 556,278 C556,354.767193 524.880789,424.268116 474.577197,474.577902 C424.866504,524.282402 356.4241,555.248628 280.736903,555.985638 C279.826661,555.993875 278.918479,556 278,556 C277.083588,556 276.173355,555.993875 275.257588,555.985587 Z" id="Shape-Copy"></path>
        </g>
    </g>
</svg>