<?xml version="1.0" encoding="UTF-8"?>
<svg width="540px" height="540px" viewBox="0 0 540 540" version="1.1" xmlns="http://www.w3.org/2000/svg" xmlns:xlink="http://www.w3.org/1999/xlink">
    <!-- Generator: Sketch 61.2 (89653) - https://sketch.com -->
    <title>Shape</title>
    <desc>Created with Sketch.</desc>
    <g id="Page-1" stroke="none" stroke-width="1" fill="none" fill-rule="evenodd">
        <g id="spacedrop" fill="#FFFFFF" fill-rule="nonzero">
            <path d="M24,269.858613 C24,336.891613 50.842573,397.649995 94.366075,442 C75.113596,410.687146 64.015746,373.838572 64.015746,334.393813 C64.015746,277.544769 87.073317,226.076837 124.346745,188.824681 C161.620172,151.564492 213.1195,128.520079 269.998995,128.520079 C326.8805,128.520079 378.377819,151.564492 415.651246,188.824681 C452.926683,226.076837 475.984254,277.544769 475.984254,334.393813 C475.984254,373.838572 464.884395,410.687146 445.633925,442 C489.157427,397.649995 516,336.891613 516,269.858613 C516,201.968249 488.460295,140.499078 443.950362,96.006514 C399.432393,51.521981 337.930133,24 269.998995,24 C202.069867,24 140.565598,51.521981 96.047629,96.006514 C51.537696,140.499078 24,201.968249 24,269.858613 Z M154,399.776757 C154,432.029596 167.040806,461.222782 188.123208,482.357275 C191.55015,485.79035 195.189398,489.012622 199.024929,492 C195.706143,483.413297 193.885517,474.067703 193.885517,464.302511 C193.885517,443.099758 202.465891,423.904651 216.327881,410.0017 C230.18987,396.10678 249.347497,387.506023 270.5,387.506023 C291.654506,387.506023 310.812133,396.10678 324.672119,410.0017 C338.534109,423.904651 347.114483,443.099758 347.114483,464.302511 C347.114483,474.067703 345.29586,483.413297 341.975071,492 C345.812605,489.012622 349.451853,485.79035 352.876792,482.357275 C373.961197,461.222782 387,432.029596 387,399.776757 C387,367.529942 373.961197,338.336756 352.876792,317.204271 C331.802402,296.069778 302.670392,283 270.5,283 C238.331611,283 209.199601,296.069778 188.123208,317.204271 C167.040806,338.336756 154,367.529942 154,399.776757 Z M146.101775,466 C135.148416,445.939855 128.915123,422.926918 128.915123,398.452619 C128.915123,359.488991 144.712813,324.215851 170.237246,298.679108 C195.769697,273.14437 231.04292,257.350038 270,257.350038 C308.95708,257.350038 344.230303,273.14437 369.762754,298.679108 C395.289191,324.215851 411.086881,359.488991 411.086881,398.452619 C411.086881,422.926918 404.851584,445.939855 393.900229,466 C395.281174,464.703017 396.648089,463.377968 397.986945,462.038888 C430.738791,429.275522 451,384.019418 451,334.030428 C451,284.033419 430.738791,238.777315 397.986945,206.021967 C365.237102,173.258601 319.980588,153 270,153 C220.019412,153 174.764902,173.258601 142.013055,206.021967 C109.263213,238.777315 89,284.033419 89,334.030428 C89,384.019418 109.263213,429.275522 142.013055,462.038888 C143.351911,463.377968 144.718826,464.703017 146.101775,466 Z M79.079305,460.920695 C30.223881,412.059256 0,344.558254 0,270 C0,195.441746 30.223881,127.942749 79.079305,79.079305 C127.942749,30.223881 195.441746,0 270,0 C344.558254,0 412.059256,30.223881 460.920695,79.079305 C509.776119,127.942749 540,195.441746 540,270 C540,344.558254 509.776119,412.059256 460.920695,460.920695 C412.640677,509.194698 346.168189,539.270216 272.664513,539.985966 C271.778347,539.993985 270.894186,540 270,540 C269.107819,540 268.221653,539.993985 267.335487,539.985966 C193.833816,539.270216 127.361328,509.194698 79.079305,460.920695 Z" id="Shape"></path>
        </g>
    </g>
</svg>