<?xml version="1.0" encoding="UTF-8"?>
<svg width="580px" height="580px" viewBox="0 0 580 580" version="1.1" xmlns="http://www.w3.org/2000/svg" xmlns:xlink="http://www.w3.org/1999/xlink">
    <!-- Generator: Sketch 61.2 (89653) - https://sketch.com -->
    <title>Shape</title>
    <desc>Created with Sketch.</desc>
    <defs>
        <linearGradient x1="50%" y1="0%" x2="50%" y2="100%" id="linearGradient-1">
            <stop stop-color="#333333" offset="0%"></stop>
            <stop stop-color="#212121" offset="49.531987%"></stop>
            <stop stop-color="#000000" offset="100%"></stop>
        </linearGradient>
        <filter x="-5.4%" y="-5.4%" width="110.8%" height="110.8%" filterUnits="objectBoundingBox" id="filter-2">
            <feOffset dx="0" dy="5" in="SourceAlpha" result="shadowOffsetOuter1"></feOffset>
            <feGaussianBlur stdDeviation="10" in="shadowOffsetOuter1" result="shadowBlurOuter1"></feGaussianBlur>
            <feColorMatrix values="0 0 0 0 0   0 0 0 0 0   0 0 0 0 0  0 0 0 0.35 0" type="matrix" in="shadowBlurOuter1" result="shadowMatrixOuter1"></feColorMatrix>
            <feMerge>
                <feMergeNode in="shadowMatrixOuter1"></feMergeNode>
                <feMergeNode in="SourceGraphic"></feMergeNode>
            </feMerge>
        </filter>
    </defs>
    <g id="Page-1" stroke="none" stroke-width="1" fill="none" fill-rule="evenodd">
        <g id="macOS-icon" transform="translate(-222.000000, -227.000000)" fill="#FFFFFF" fill-rule="nonzero">
            <g id="Icon-Artwork">
                <g id="Icon" filter="url(#filter-2)" transform="translate(62.000000, 62.000000)">
                    <path d="M204,449.858613 C204,516.891613 230.842573,577.649995 274.366075,622 C255.113596,590.687146 244.015746,553.838572 244.015746,514.393813 C244.015746,457.544769 267.073317,406.076837 304.346745,368.824681 C341.620172,331.564492 393.1195,308.520079 449.998995,308.520079 C506.8805,308.520079 558.377819,331.564492 595.651246,368.824681 C632.926683,406.076837 655.984254,457.544769 655.984254,514.393813 C655.984254,553.838572 644.884395,590.687146 625.633925,622 C669.157427,577.649995 696,516.891613 696,449.858613 C696,381.968249 668.460295,320.499078 623.950362,276.006514 C579.432393,231.521981 517.930133,204 449.998995,204 C382.069867,204 320.565598,231.521981 276.047629,276.006514 C231.537696,320.499078 204,381.968249 204,449.858613 Z M334,579.776757 C334,612.029596 347.040806,641.222782 368.123208,662.357275 C371.55015,665.79035 375.189398,669.012622 379.024929,672 C375.706143,663.413297 373.885517,654.067703 373.885517,644.302511 C373.885517,623.099758 382.465891,603.904651 396.327881,590.0017 C410.18987,576.10678 429.347497,567.506023 450.5,567.506023 C471.654506,567.506023 490.812133,576.10678 504.672119,590.0017 C518.534109,603.904651 527.114483,623.099758 527.114483,644.302511 C527.114483,654.067703 525.29586,663.413297 521.975071,672 C525.812605,669.012622 529.451853,665.79035 532.876792,662.357275 C553.961197,641.222782 567,612.029596 567,579.776757 C567,547.529942 553.961197,518.336756 532.876792,497.204271 C511.802402,476.069778 482.670392,463 450.5,463 C418.331611,463 389.199601,476.069778 368.123208,497.204271 C347.040806,518.336756 334,547.529942 334,579.776757 Z M326.101775,646 C315.148416,625.939855 308.915123,602.926918 308.915123,578.452619 C308.915123,539.488991 324.712813,504.215851 350.237246,478.679108 C375.769697,453.14437 411.04292,437.350038 450,437.350038 C488.95708,437.350038 524.230303,453.14437 549.762754,478.679108 C575.289191,504.215851 591.086881,539.488991 591.086881,578.452619 C591.086881,602.926918 584.851584,625.939855 573.900229,646 C575.281174,644.703017 576.648089,643.377968 577.986945,642.038888 C610.738791,609.275522 631,564.019418 631,514.030428 C631,464.033419 610.738791,418.777315 577.986945,386.021967 C545.237102,353.258601 499.980588,333 450,333 C400.019412,333 354.764902,353.258601 322.013055,386.021967 C289.263213,418.777315 269,464.033419 269,514.030428 C269,564.019418 289.263213,609.275522 322.013055,642.038888 C323.351911,643.377968 324.718826,644.703017 326.101775,646 Z M259.079305,640.920695 C210.223881,592.059256 180,524.558254 180,450 C180,375.441746 210.223881,307.942749 259.079305,259.079305 C307.942749,210.223881 375.441746,180 450,180 C524.558254,180 592.059256,210.223881 640.920695,259.079305 C689.776119,307.942749 720,375.441746 720,450 C720,524.558254 689.776119,592.059256 640.920695,640.920695 C592.640677,689.194698 526.168189,719.270216 452.664513,719.985966 C451.778347,719.993985 450.894186,720 450,720 C449.107819,720 448.221653,719.993985 447.335487,719.985966 C373.833816,719.270216 307.361328,689.194698 259.079305,640.920695 Z" id="Shape"></path>
                </g>
            </g>
        </g>
    </g>
</svg>